# xmcd
#
# Track frame offsets:
#	150
#	14707
#	31982
#	48947
#	63737
#	80485
#	96362
#	112092
#	129650
#	144197
#	161455
#	178387
#	193159
#	209832
#	225709
#	241422
#	270425
#
# Disc length: 3618 seconds
#
# Revision: 1
# Processed by: cddbd v1.5.1PL2 Copyright (c) Steve Scherf et al.
# Submitted via: audiograbber 1.83.01
#
DISCID=fe0e2011
DTITLE=Sound Choice - SC3254
DYEAR=1900
DGENRE=Karaoke Country
TTITLE0=Jamie O'Neal - When I Think About Angels
TTITLE1=Loretta Lynn - I Can'T Hear The Music
TTITLE2=Kortney Kayle - Don'T Let Me Down
TTITLE3=Dolly Parton - A Tender Lie
TTITLE4=Tammy Cochran - Angels In Waiting
TTITLE5=The Wilkinsons - I Wanna Be That Girl
TTITLE6=Cyndi Thomson - What I Really Meant To Say
TTITLE7=Trisha Yearwood - I Would'Ve Loved You Anyway
TTITLE8=Jamie O'Neal - When I Think About Angels
TTITLE9=Loretta Lynn - I Can'T Hear The Music
TTITLE10=Kortney Kayle - Don'T Let Me Down
TTITLE11=Dolly Parton - A Tender Lie
TTITLE12=Tammy Cochran - Angels In Waiting
TTITLE13=The Wilkinsons - I Wanna Be That Girl
TTITLE14=Cyndi Thomson - What I Really Meant To Say
TTITLE15=Trisha Yearwood - I Would'Ve Loved You Anyway
TTITLE16=Must Supply An Artist - Data Track
EXTD=Tracks 9-16 Demos
EXTT0=
EXTT1=
EXTT2=
EXTT3=
EXTT4=
EXTT5=
EXTT6=
EXTT7=
EXTT8=
EXTT9=
EXTT10=
EXTT11=
EXTT12=
EXTT13=
EXTT14=
EXTT15=
EXTT16=
PLAYORDER=
